<?xml version="1.0" encoding="UTF-8"?>
<svg viewBox="0 0 600 800" xmlns="http://www.w3.org/2000/svg">
  <!-- Dark background -->
  <rect width="600" height="800" fill="#121212" />
  
  <!-- Top UI bar background -->
  <rect x="50" y="50" width="500" height="80" fill="#1a1a1a" stroke="#444444" stroke-width="2" />
  
  <!-- Mine counter - yellow pixel style -->
  <rect x="80" y="65" width="100" height="50" fill="#222222" stroke="#444444" stroke-width="2" />
  <text x="130" y="100" fill="#ffcc00" font-family="Courier New" font-size="32" text-anchor="middle" font-weight="bold">010</text>
  
  <!-- Smiley face reset button -->
  <circle cx="300" cy="90" r="30" fill="#333333" stroke="#444444" stroke-width="2" />
  <!-- Smiley face -->
  <circle cx="300" cy="90" r="25" fill="#ffcc00" />
  <circle cx="288" cy="82" r="4" fill="#121212" /> <!-- Left eye -->
  <circle cx="312" cy="82" r="4" fill="#121212" /> <!-- Right eye -->
  <path d="M285,97 Q300,110 315,97" stroke="#121212" stroke-width="3" fill="none" /> <!-- Smile -->
  
  <!-- Timer - red pixel style -->
  <rect x="420" y="65" width="100" height="50" fill="#222222" stroke="#444444" stroke-width="2" />
  <text x="470" y="100" fill="#ff5555" font-family="Courier New" font-size="32" text-anchor="middle" font-weight="bold">000</text>
  
  <!-- Main grid container -->
  <rect x="100" y="150" width="400" height="500" fill="#222222" stroke="#444444" stroke-width="2" />
  
  <!-- Minesweeper grid - 8x10 -->
  <g transform="translate(100, 150)">
    <!-- Grid cells -->
    <!-- Row 1 -->
    <rect x="0" y="0" width="50" height="50" fill="#445566" stroke="#333344" stroke-width="1" />
    <rect x="50" y="0" width="50" height="50" fill="#445566" stroke="#333344" stroke-width="1" />
    <rect x="100" y="0" width="50" height="50" fill="#445566" stroke="#333344" stroke-width="1" />
    <rect x="150" y="0" width="50" height="50" fill="#445566" stroke="#333344" stroke-width="1" />
    <rect x="200" y="0" width="50" height="50" fill="#445566" stroke="#333344" stroke-width="1" />
    <rect x="250" y="0" width="50" height="50" fill="#445566" stroke="#333344" stroke-width="1" />
    <rect x="300" y="0" width="50" height="50" fill="#445566" stroke="#333344" stroke-width="1" />
    <rect x="350" y="0" width="50" height="50" fill="#445566" stroke="#333344" stroke-width="1" />
    
    <!-- Row 2 -->
    <rect x="0" y="50" width="50" height="50" fill="#445566" stroke="#333344" stroke-width="1" />
    <rect x="50" y="50" width="50" height="50" fill="#445566" stroke="#333344" stroke-width="1" />
    <rect x="100" y="50" width="50" height="50" fill="#445566" stroke="#333344" stroke-width="1" />
    <rect x="150" y="50" width="50" height="50" fill="#445566" stroke="#333344" stroke-width="1" />
    <rect x="200" y="50" width="50" height="50" fill="#445566" stroke="#333344" stroke-width="1" />
    <rect x="250" y="50" width="50" height="50" fill="#445566" stroke="#333344" stroke-width="1" />
    <rect x="300" y="50" width="50" height="50" fill="#445566" stroke="#333344" stroke-width="1" />
    <rect x="350" y="50" width="50" height="50" fill="#445566" stroke="#333344" stroke-width="1" />
    
    <!-- Row 3 -->
    <rect x="0" y="100" width="50" height="50" fill="#445566" stroke="#333344" stroke-width="1" />
    <rect x="50" y="100" width="50" height="50" fill="#445566" stroke="#333344" stroke-width="1" />
    <rect x="100" y="100" width="50" height="50" fill="#445566" stroke="#333344" stroke-width="1" />
    <rect x="150" y="100" width="50" height="50" fill="#445566" stroke="#333344" stroke-width="1" />
    <rect x="200" y="100" width="50" height="50" fill="#445566" stroke="#333344" stroke-width="1" />
    <rect x="250" y="100" width="50" height="50" fill="#445566" stroke="#333344" stroke-width="1" />
    <rect x="300" y="100" width="50" height="50" fill="#445566" stroke="#333344" stroke-width="1" />
    <rect x="350" y="100" width="50" height="50" fill="#445566" stroke="#333344" stroke-width="1" />
    
    <!-- Row 4 -->
    <rect x="0" y="150" width="50" height="50" fill="#445566" stroke="#333344" stroke-width="1" />
    <rect x="50" y="150" width="50" height="50" fill="#445566" stroke="#333344" stroke-width="1" />
    <rect x="100" y="150" width="50" height="50" fill="#334455" stroke="#333344" stroke-width="1" />
    <rect x="150" y="150" width="50" height="50" fill="#334455" stroke="#333344" stroke-width="1" />
    <rect x="200" y="150" width="50" height="50" fill="#334455" stroke="#333344" stroke-width="1" />
    <rect x="250" y="150" width="50" height="50" fill="#445566" stroke="#333344" stroke-width="1" />
    <rect x="300" y="150" width="50" height="50" fill="#445566" stroke="#333344" stroke-width="1" />
    <rect x="350" y="150" width="50" height="50" fill="#445566" stroke="#333344" stroke-width="1" />
    
    <!-- Row 5 -->
    <rect x="0" y="200" width="50" height="50" fill="#445566" stroke="#333344" stroke-width="1" />
    <rect x="50" y="200" width="50" height="50" fill="#445566" stroke="#333344" stroke-width="1" />
    <rect x="100" y="200" width="50" height="50" fill="#334455" stroke="#333344" stroke-width="1" />
    <text x="125" y="235" fill="#2288ff" font-family="Courier New" font-size="26" text-anchor="middle" font-weight="bold">1</text>
    <rect x="150" y="200" width="50" height="50" fill="#334455" stroke="#333344" stroke-width="1" />
    <text x="175" y="235" fill="#22cc22" font-family="Courier New" font-size="26" text-anchor="middle" font-weight="bold">2</text>
    <rect x="200" y="200" width="50" height="50" fill="#334455" stroke="#333344" stroke-width="1" />
    <text x="225" y="235" fill="#ff5555" font-family="Courier New" font-size="26" text-anchor="middle" font-weight="bold">3</text>
    <rect x="250" y="200" width="50" height="50" fill="#445566" stroke="#333344" stroke-width="1" />
    <rect x="300" y="200" width="50" height="50" fill="#445566" stroke="#333344" stroke-width="1" />
    <rect x="350" y="200" width="50" height="50" fill="#445566" stroke="#333344" stroke-width="1" />
    
    <!-- Row 6 -->
    <rect x="0" y="250" width="50" height="50" fill="#445566" stroke="#333344" stroke-width="1" />
    <rect x="50" y="250" width="50" height="50" fill="#445566" stroke="#333344" stroke-width="1" />
    <rect x="100" y="250" width="50" height="50" fill="#445566" stroke="#333344" stroke-width="1" />
    <rect x="150" y="250" width="50" height="50" fill="#445566" stroke="#333344" stroke-width="1" />
    <rect x="200" y="250" width="50" height="50" fill="#445566" stroke="#333344" stroke-width="1" />
    <rect x="250" y="250" width="50" height="50" fill="#445566" stroke="#333344" stroke-width="1" />
    <rect x="300" y="250" width="50" height="50" fill="#445566" stroke="#333344" stroke-width="1" />
    <rect x="350" y="250" width="50" height="50" fill="#445566" stroke="#333344" stroke-width="1" />
    
    <!-- Row 7 -->
    <rect x="0" y="300" width="50" height="50" fill="#445566" stroke="#333344" stroke-width="1" />
    <rect x="50" y="300" width="50" height="50" fill="#445566" stroke="#333344" stroke-width="1" />
    <rect x="100" y="300" width="50" height="50" fill="#445566" stroke="#333344" stroke-width="1" />
    <rect x="150" y="300" width="50" height="50" fill="#445566" stroke="#333344" stroke-width="1" />
    <rect x="200" y="300" width="50" height="50" fill="#445566" stroke="#333344" stroke-width="1" />
    <rect x="250" y="300" width="50" height="50" fill="#445566" stroke="#333344" stroke-width="1" />
    <rect x="300" y="300" width="50" height="50" fill="#445566" stroke="#333344" stroke-width="1" />
    <!-- Flagged cell example -->
    <rect x="350" y="300" width="50" height="50" fill="#445566" stroke="#333344" stroke-width="1" />
    <polygon points="375,305 375,325 390,315" fill="#ff5555" />
    <line x1="375" y1="305" x2="375" y2="335" stroke="#ff5555" stroke-width="2" />
    
    <!-- Row 8 -->
    <rect x="0" y="350" width="50" height="50" fill="#445566" stroke="#333344" stroke-width="1" />
    <rect x="50" y="350" width="50" height="50" fill="#445566" stroke="#333344" stroke-width="1" />
    <rect x="100" y="350" width="50" height="50" fill="#445566" stroke="#333344" stroke-width="1" />
    <rect x="150" y="350" width="50" height="50" fill="#445566" stroke="#333344" stroke-width="1" />
    <rect x="200" y="350" width="50" height="50" fill="#445566" stroke="#333344" stroke-width="1" />
    <rect x="250" y="350" width="50" height="50" fill="#445566" stroke="#333344" stroke-width="1" />
    <rect x="300" y="350" width="50" height="50" fill="#445566" stroke="#333344" stroke-width="1" />
    <rect x="350" y="350" width="50" height="50" fill="#445566" stroke="#333344" stroke-width="1" />
    
    <!-- Row 9 -->
    <rect x="0" y="400" width="50" height="50" fill="#445566" stroke="#333344" stroke-width="1" />
    <rect x="50" y="400" width="50" height="50" fill="#445566" stroke="#333344" stroke-width="1" />
    <rect x="100" y="400" width="50" height="50" fill="#445566" stroke="#333344" stroke-width="1" />
    <rect x="150" y="400" width="50" height="50" fill="#445566" stroke="#333344" stroke-width="1" />
    <rect x="200" y="400" width="50" height="50" fill="#445566" stroke="#333344" stroke-width="1" />
    <rect x="250" y="400" width="50" height="50" fill="#445566" stroke="#333344" stroke-width="1" />
    <rect x="300" y="400" width="50" height="50" fill="#445566" stroke="#333344" stroke-width="1" />
    <rect x="350" y="400" width="50" height="50" fill="#445566" stroke="#333344" stroke-width="1" />
    
    <!-- Row 10 -->
    <rect x="0" y="450" width="50" height="50" fill="#445566" stroke="#333344" stroke-width="1" />
    <rect x="50" y="450" width="50" height="50" fill="#445566" stroke="#333344" stroke-width="1" />
    <rect x="100" y="450" width="50" height="50" fill="#445566" stroke="#333344" stroke-width="1" />
    <rect x="150" y="450" width="50" height="50" fill="#445566" stroke="#333344" stroke-width="1" />
    <rect x="200" y="450" width="50" height="50" fill="#445566" stroke="#333344" stroke-width="1" />
    <rect x="250" y="450" width="50" height="50" fill="#445566" stroke="#333344" stroke-width="1" />
    <rect x="300" y="450" width="50" height="50" fill="#445566" stroke="#333344" stroke-width="1" />
    <rect x="350" y="450" width="50" height="50" fill="#445566" stroke="#333344" stroke-width="1" />
  </g>
  
  <!-- Restart button -->
  <rect x="200" y="680" width="200" height="60" rx="5" ry="5" fill="#333344" stroke="#445566" stroke-width="2" />
  <text x="300" y="725" fill="#ffffff" font-family="Arial" font-size="24" text-anchor="middle" font-weight="bold">RESTART</text>
  
  <!-- General Assembly logo -->
  <rect x="480" y="750" width="100" height="30" fill="#000000" />
  <text x="530" y="770" fill="#ff0000" font-family="Arial" font-size="12" text-anchor="middle" font-weight="bold">GENERAL</text>
  <text x="530" y="777" fill="#ffffff" font-family="Arial" font-size="8" text-anchor="middle">ASSEMBLY</text>
</svg>